<svg xmlns="http://www.w3.org/2000/svg" width="1920" height="1080" viewBox="0 0 1920 1080">
  <rect width="100%" height="100%" fill="#F5F1EA"/>
  <g opacity="0.06" fill="none" stroke="#2C2A27" stroke-width="0.5">
    <path d="M0 90h1920M0 180h1920M0 270h1920M0 360h1920M0 450h1920M0 540h1920M0 630h1920M0 720h1920M0 810h1920M0 900h1920M0 990h1920"/>
    <path d="M60 0v1080M120 0v1080M180 0v1080M240 0v1080M300 0v1080M360 0v1080M420 0v1080M480 0v1080M540 0v1080M600 0v1080M660 0v1080M720 0v1080M780 0v1080M840 0v1080M900 0v1080M960 0v1080M1020 0v1080M1080 0v1080M1140 0v1080M1200 0v1080M1260 0v1080M1320 0v1080M1380 0v1080M1440 0v1080M1500 0v1080M1560 0v1080M1620 0v1080M1680 0v1080M1740 0v1080M1800 0v1080M1860 0v1080"/>
  </g>
</svg>
